Coordinates
nRows=135
nColumns=2
inDegrees=yes
endheader
time	ankle_angle_r	
2.625	 18.465677	
2.6875	 18.463135	
2.75	 18.527077	
2.8125	 18.487476	
2.875	 18.432617	
2.9375	 18.481846	
3	 18.409367	
3.0625	 18.550873	
3.125	 18.439884	
3.1875	 18.447876	
3.25	 18.511091	
3.3125	 18.428076	
3.375	 18.406822	
3.4375	 18.519266	
3.5	 18.397013	
3.5625	 18.488384	
3.625	 18.514360	
3.6875	 18.520174	
3.75	 18.419538	
3.8125	 18.466404	
3.875	 18.402100	
3.9375	 18.493652	
4	 18.541609	
4.0625	 18.452780	
4.125	 18.517267	
4.1875	 18.440792	
4.25	 18.555414	
4.3125	 18.524532	
4.375	 18.531799	
4.4375	 18.516722	
4.5	 18.447149	
4.5625	 18.578121	
4.625	 18.539429	
4.6875	 18.500374	
4.75	 18.545969	
4.8125	 18.478394	
4.875	 18.551418	
4.9375	 18.472399	
5	 18.524170	
5.0625	 18.554688	
5.125	 18.605913	
5.1875	 18.559956	
5.25	 18.549601	
5.3125	 18.503462	
5.375	 18.539429	
5.4375	 18.493652	
5.5	 18.471853	
5.5625	 18.565769	
5.625	 18.482389	
5.6875	 18.486023	
5.75	 18.466768	
5.8125	 18.490200	
5.875	 18.527439	
5.9375	 18.536341	
6	 18.468948	
6.0625	 18.579756	
6.125	 18.575033	
6.1875	 18.521809	
6.25	 18.565586	
6.3125	 18.423353	
6.375	 18.478394	
6.4375	 18.461500	
6.5	 18.417358	
6.5625	 18.463135	
6.625	 18.447876	
6.6875	 18.493652	
6.75	 18.553234	
6.8125	 18.434252	
6.875	 18.416632	
6.9375	 18.387386	
7	 18.432617	
7.0625	 18.493652	
7.125	 18.538702	
7.1875	 18.417904	
7.25	 18.479120	
7.3125	 18.403008	
7.375	 18.448965	
7.4375	 18.493652	
7.5	 18.479847	
7.5625	 18.525805	
7.625	 18.476578	
7.6875	 18.476395	
7.75	 18.450056	
7.8125	 18.430256	
7.875	 18.397013	
7.9375	 18.447876	
8	 18.432617	
8.0625	 18.435705	
8.125	 18.429348	
8.1875	 18.447876	
8.25	 18.459501	
8.3125	 18.356323	
8.375	 18.341064	
8.4375	 18.417358	
8.5	 18.356323	
8.5625	 18.446241	
8.625	 18.513634	
8.6875	 18.366678	
8.75	 18.468222	
8.8125	 18.396832	
8.875	 18.468584	
8.9375	 18.422989	
9	 18.423172	
9.0625	 18.444607	
9.125	 18.417358	
9.1875	 18.362680	
9.25	 18.402100	
9.3125	 18.358139	
9.375	 18.356323	
9.4375	 18.379757	
9.5	 18.333797	
9.5625	 18.409548	
9.625	 18.424988	
9.6875	 18.402100	
9.75	 18.463861	
9.8125	 18.453871	
9.875	 18.479847	
9.9375	 18.486931	
10	 18.578665	
10.0625	 18.550873	
10.125	 18.444969	
10.1875	 18.502916	
10.25	 18.442062	
10.3125	 18.508911	
10.375	 18.392290	
10.4375	 18.483662	
10.5	 18.386841	
10.5625	 18.458231	
10.625	 18.544151	
10.6875	 18.473852	
10.75	 18.535069	
10.8125	 18.463135	
10.875	 18.471127	
10.9375	 18.524170	
11	 18.420992	
